<svg xmlns="http://www.w3.org/2000/svg" width="353" height="439" viewBox="0 0 353 439" fill="none"><path d="M346.944 294.066V311.342C346.944 314.816 344.62 318.313 340.018 320.966L223.704 388.073C214.501 393.401 199.545 393.401 190.318 388.073C190.247 388.026 13.9457 286.321 13.9457 286.321C9.34384 283.645 7.06641 280.147 7.06641 276.674V259.116L24.5815 260.924L27.352 259.328L130.306 199.919C139.51 194.591 154.466 194.591 163.693 199.919L322.456 291.531L346.968 294.043L346.944 294.066Z" fill="#784B86"></path><path d="M190.271 331.88V388.002L13.9691 286.297C9.34384 283.645 7.06641 280.148 7.06641 276.674V259.116L24.5815 260.924L27.352 259.328L190.247 331.88H190.271Z" fill="#421D46"></path><path d="M339.969 303.69L223.656 370.797C214.429 376.125 199.473 376.125 190.269 370.797L13.9203 269.045C4.69322 263.717 4.69322 255.103 13.9203 249.774L130.234 182.667C139.461 177.339 154.417 177.339 163.621 182.667L339.969 284.419C349.196 289.748 349.196 298.362 339.969 303.69Z" fill="#673A71"></path><path d="M342.152 293.55C342.152 295.146 340.556 297.024 337.902 298.573L275.566 334.533L274.604 335.096L221.612 365.68C217.997 367.769 212.902 368.966 207.596 368.966C202.289 368.966 197.194 367.769 193.579 365.68L136.479 332.725L117.766 321.928L103.092 313.455L84.0506 302.47L17.2067 263.928C14.5536 262.403 12.957 260.525 12.957 258.929C12.957 257.333 14.5301 255.455 17.2067 253.929L133.52 186.798C135.093 185.907 136.901 185.179 138.92 184.639C141.573 183.911 144.532 183.536 147.537 183.536C150.542 183.536 153.219 183.888 155.778 184.545C157.962 185.085 159.91 185.86 161.577 186.822L337.926 288.574C340.579 290.123 342.176 291.978 342.176 293.574L342.152 293.55Z" fill="#FFFEFF"></path><path d="M340.18 293.55C340.18 294.114 339.312 295.475 336.917 296.86L274.581 332.819L273.595 333.383L260.282 341.058L255.399 343.875L220.603 363.943C217.293 365.868 212.527 366.971 207.573 366.971C202.619 366.971 197.852 365.868 194.542 363.943L137.465 330.988L118.753 320.191L18.1932 262.215C15.7984 260.83 14.9297 259.492 14.9297 258.905C14.9297 258.318 15.7984 256.98 18.1932 255.619L67.7098 227.053L72.1003 224.518L134.507 188.512C135.915 187.714 137.582 187.033 139.437 186.54C141.95 185.86 144.743 185.484 147.561 185.484C150.214 185.484 152.891 185.813 155.309 186.423C157.328 186.939 159.112 187.62 160.592 188.489L336.94 290.241C339.312 291.625 340.204 293.01 340.204 293.55H340.18Z" fill="#26ADDB"></path><path fill-rule="evenodd" clip-rule="evenodd" d="M24.1992 265.678L105.007 219.093L93.2503 212.315L101.317 207.661L143.492 231.974L183.153 209.11L210.302 224.761L216.882 220.968L223.774 224.945L217.18 228.746L290.401 270.958L296.964 267.175L303.856 271.152L290.384 278.918L290.332 278.908L210.198 232.712L177.45 251.591L296.458 320.198L288.39 324.852L236.518 294.948C232.927 297.025 228.862 299.375 224.364 301.975L224.255 302.038C214.964 307.409 203.835 313.842 191.241 321.13L242.394 350.619L234.703 355.053L183.568 325.573C174.895 330.582 165.618 335.943 155.838 341.597L148.988 337.642C158.425 332.188 167.686 326.836 176.724 321.608L116.24 286.739C107.167 291.935 97.8734 297.262 88.4009 302.693L81.4915 298.709C91.437 293.009 100.763 287.664 109.327 282.754L89.2808 271.197L61.5256 287.198L54.6133 283.213L135.422 236.627L113.077 223.745L32.2693 270.331L24.1992 265.678ZM162.519 252.268C159.456 254.025 154.567 256.823 148.124 260.51L148.102 260.523C140.009 265.155 129.468 271.187 117.017 278.321L96.9364 266.744L142.283 240.602L162.519 252.268ZM150.37 235.959L183.119 217.08L203.355 228.746L170.607 247.626L150.37 235.959ZM229.692 290.973C223.214 294.717 216.531 298.583 209.665 302.554L209.587 302.599C201.44 307.312 193.036 312.174 184.415 317.155L123.964 282.306C140.002 273.12 155.278 264.373 169.466 256.253L229.692 290.973Z" fill="#3FBFEB"></path><path d="M258.503 277.286L265.405 281.6L247.718 292.385L209.849 272.848L100.109 260.947L56.4688 232.23L60.8827 229.695L102.434 256.229L215.085 268.458L245.992 285.051L258.503 277.286Z" fill="#FFFEFF"></path><path d="M276.317 272.424C283.052 276.295 283.052 282.59 276.317 286.461C269.582 290.333 258.642 290.333 251.907 286.461C245.172 282.59 245.172 276.295 251.907 272.424C258.642 268.552 269.582 268.552 276.317 272.424Z" fill="#FFFEFF"></path><path d="M108.539 254.586C112.366 256.793 112.366 260.36 108.539 262.567C104.712 264.773 98.5137 264.773 94.7101 262.567C90.8831 260.36 90.8831 256.793 94.7101 254.586C98.5371 252.38 104.736 252.38 108.539 254.586Z" fill="#FFFEFF"></path><rect width="37.9638" height="13.805" rx="6.9025" transform="matrix(0.866025 -0.5 0.866025 0.5 72.5664 229.831)" fill="black"></rect><rect width="34.5125" height="4.31406" rx="2.15703" transform="matrix(0.866025 -0.5 0.866025 0.5 251.172 338.545)" fill="black"></rect><path opacity="0.75" fill-rule="evenodd" clip-rule="evenodd" d="M239.414 294.233C251.055 300.954 269.929 300.954 281.57 294.233C293.211 287.512 293.211 276.616 281.57 269.895C269.929 263.174 251.055 263.174 239.414 269.895C227.774 276.616 227.774 287.512 239.414 294.233ZM236.761 295.765C249.868 303.332 271.117 303.332 284.223 295.765C297.329 288.198 297.329 275.93 284.223 268.363C271.117 260.796 249.868 260.796 236.761 268.363C223.655 275.93 223.655 288.198 236.761 295.765Z" fill="white"></path><path opacity="0.5" fill-rule="evenodd" clip-rule="evenodd" d="M234.403 297.126C248.812 305.445 272.173 305.445 286.581 297.126C300.99 288.808 300.99 275.32 286.581 267.001C272.173 258.682 248.812 258.682 234.403 267.001C219.994 275.32 219.994 288.808 234.403 297.126ZM232.634 298.148C248.02 307.031 272.965 307.031 288.35 298.148C303.736 289.265 303.736 274.863 288.35 265.98C272.965 257.097 248.02 257.097 232.634 265.98C217.249 274.863 217.249 289.265 232.634 298.148Z" fill="white"></path><path fill-rule="evenodd" clip-rule="evenodd" d="M293.172 301.122C310.7 291.003 310.7 274.595 293.172 264.475C275.644 254.355 247.225 254.355 229.696 264.475C212.168 274.595 212.168 291.003 229.696 301.122C247.225 311.242 275.644 311.242 293.172 301.122ZM294.169 301.698C312.248 291.26 312.248 274.337 294.169 263.899C276.09 253.462 246.778 253.462 228.699 263.899C210.621 274.337 210.621 291.26 228.699 301.698C246.778 312.136 276.09 312.136 294.169 301.698Z" fill="white" fill-opacity="0.2"></path><path d="M255.245 238.057L245.73 232.498C248.804 234.291 253.053 234.041 257.754 231.318L267.269 236.877C262.568 239.6 258.319 239.85 255.245 238.057Z" fill="#B83333"></path><path d="M267.269 236.855L257.754 231.295C267.088 225.895 274.636 212.779 274.614 202.001C274.614 196.601 272.693 192.811 269.619 191.064L279.134 196.623C282.208 198.371 284.129 202.16 284.129 207.56C284.151 218.316 276.603 231.431 267.269 236.855Z" fill="#B83333"></path><path d="M267.109 181.919L257.594 176.36C265.888 171.618 273.324 171.187 278.703 174.318L288.217 179.877C282.838 176.746 275.403 177.154 267.109 181.919Z" fill="#B83333"></path><path d="M267.11 181.919C283.789 172.367 297.033 180.308 296.965 199.55C296.92 232.475 270.206 275.883 267.404 280.422C267.291 280.648 267.178 280.785 267.155 280.853C266.477 280.558 237.48 268.032 237.48 233.655C237.548 214.504 250.792 191.427 267.132 181.919H267.11ZM267.268 236.855C276.602 231.454 284.15 218.339 284.128 207.56C284.128 202.16 282.207 198.371 279.133 196.623C276.059 194.876 271.833 195.148 267.155 197.849C257.821 203.249 250.272 216.387 250.318 227.166C250.34 237.921 257.934 242.255 267.268 236.855Z" fill="#FB4646"></path><path d="M263.47 278.947L253.955 273.387C246.023 268.758 227.965 255.234 227.965 228.096C228.033 208.945 241.277 185.89 257.617 176.383L267.131 181.942C250.791 191.45 237.547 214.527 237.48 233.678C237.48 260.816 255.537 274.34 263.493 278.969L263.47 278.947Z" fill="#B83333"></path><path d="M96.2044 94.0733L95.5352 105.505L108.362 110.023L109.393 98.5346L104.709 93.3204L96.2044 94.0733Z" fill="#C7A496"></path><path d="M108.583 97.252C108.583 97.252 108.862 106.007 107.3 106.705C105.711 107.402 96.7606 101.769 96.7606 101.769L95.0039 119.642L110.451 130.378L119.402 127.338V118.555L113.491 98.3395L108.583 97.1963V97.252Z" fill="#FF4D75"></path><path d="M173.805 131.298L166.75 138.547C166.75 138.547 169.483 141.001 173.33 135.982C175.868 132.692 173.805 131.298 173.805 131.298Z" fill="#F0C6B4"></path><path d="M175.391 119.224L160.25 152.043L161.561 152.712L179.239 124.717L176.701 119.893L175.391 119.224Z" fill="#673A71"></path><path d="M157.715 147.219L160.252 152.043L177.958 124.02L175.393 119.224L157.715 147.219Z" fill="#26ADDB"></path><path d="M158.912 130.433L158.438 136.568L163.122 137.571L165.576 133.835C165.576 133.835 165.325 136.735 166.97 135.62C167.778 135.09 170.818 131.326 168.838 129.011C168.308 128.593 158.912 130.405 158.912 130.405V130.433Z" fill="#F0C6B4"></path><path d="M155.789 129.29L153.977 136.456L160.25 137.125C160.25 137.125 159.274 133.138 160.78 129.931C160.334 129.792 155.789 129.29 155.789 129.29Z" fill="white"></path><path d="M135.686 125.665L125.481 109.632C125.481 109.632 122.191 98.9808 116.614 96.3877C115.136 95.6627 112.738 98.3395 112.738 98.3395L115.722 104.111L118.901 121.26C118.901 121.26 126.736 131.577 128.353 133.724C129.97 135.843 156.794 137.571 156.794 137.571C156.794 137.571 154.87 132.692 157.714 128.509C156.125 128.286 135.686 125.665 135.686 125.665Z" fill="#303033"></path><path d="M119.43 117.3L124.002 127.98C124.002 127.98 128.324 125.805 128.324 121.762C128.324 115.571 122.19 111.277 116.139 101.769C115.219 101.602 119.43 117.3 119.43 117.3Z" fill="#121214"></path><path d="M97.5141 201.285C97.1516 200.365 84.8829 192.725 84.7156 195.68C82.6802 206.053 78.163 210.459 77.9957 213.916C77.4938 224.679 83.2936 225.655 81.8994 245.062C81.8994 245.062 82.8196 259.924 90.1808 258.167C92.6903 257.582 92.6624 254.988 92.6624 254.988C91.6586 252.674 90.6548 250.165 90.4039 247.683C89.8741 242.831 88.8145 217.429 90.85 214.223C92.8855 210.988 96.0084 206.611 97.5141 201.313V201.285Z" fill="#F0C6B4"></path><path d="M81.901 245.062C81.4828 249.272 81.678 254.04 83.825 259.255C86.5297 265.807 94.114 265.11 94.6995 263.577C95.5639 261.457 92.8871 255.546 92.664 254.988C85.247 263.967 81.8731 245.062 81.8731 245.062H81.901Z" fill="black"></path><path d="M109.504 199.556L111.512 212.132C111.512 212.132 107.469 219.604 106.632 223.173C105.824 226.743 106.381 244.672 105.266 246.791C105.266 246.791 104.318 252.005 110.592 255.462C116.893 258.948 120.658 256.327 120.658 256.327C119.04 254.905 117.535 253.092 116.503 250.193C113.436 233.992 121.41 219.437 123.167 215.784C124.896 212.187 122.526 203.906 125.035 192.028C122.972 191.052 109.532 199.556 109.532 199.556H109.504Z" fill="#F0C6B4"></path><path d="M120.686 256.299C109.504 258.056 105.294 246.763 105.294 246.763C104.513 248.241 102.004 252.618 103.872 255.1C106.549 258.558 108.529 257.135 111.54 258.892C115.75 261.29 118.148 266.002 124.478 266.755C128.186 267.201 128.437 263.465 125.788 260.481C124.366 258.948 121.829 257.386 120.686 256.299Z" fill="black"></path><path d="M118.484 151.736L97.1529 150.063C97.1529 150.063 86.8918 167.658 85.3025 172.649C83.7131 177.64 83.6016 195.625 83.6016 195.625C83.6016 195.625 84.6054 201.592 91.9945 202.846C105.434 205.105 124.005 195.82 124.925 193.506C126.152 177.528 126.096 164.033 124.339 157.843C123.475 154.803 118.484 151.736 118.484 151.736Z" fill="#303033"></path><path d="M93.0259 159.795L84.8281 174.824C84.8281 174.824 92.6355 186.563 112.014 176.274C114.412 174.74 115.165 170.613 115.165 170.613C121.941 175.828 125.482 165.483 125.482 165.483L118.79 154.887L93.0259 159.822V159.795Z" fill="#121214"></path><path d="M127.294 122.124C127.851 117.384 118.678 107.848 113.77 97.2519C112.432 97.1962 111.512 99.8172 111.512 99.8172C111.512 99.8172 118.204 118.165 114.244 124.633C113.101 126.585 115.164 156.532 115.164 156.532C115.164 156.532 115.025 169.219 116.336 170.362C119.403 172.983 126.513 166.626 126.374 162.304C126.318 158.763 123.529 147.665 122.637 144.012C121.717 140.388 121.55 129.764 121.55 129.764C121.55 129.764 126.736 126.864 127.294 122.096V122.124Z" fill="#303033"></path><path d="M92.8288 101.797C91.2394 102.327 85.8021 108.628 84.1291 110.273C84.2964 111.222 90.7375 142.59 92.6893 146.912C82.3446 162.778 83.6551 173.792 83.6551 173.792C83.6551 173.792 88.2559 178.365 94.1672 178.672C106.659 179.369 111.371 175.855 112.765 173.792C114.16 171.756 115.191 165.985 115.191 159.962C116.307 143.845 115.61 130.768 114.271 124.661C102.476 117.272 94.446 101.267 92.8566 101.825L92.8288 101.797Z" fill="#303033"></path><path d="M86.332 159.265L99.8834 162.332L87.1407 157.369L86.332 159.265Z" fill="#121214"></path><path d="M90.9609 149.338L101.389 151.736L92.2157 147.637L90.9609 149.338Z" fill="#121214"></path><path d="M90.9609 140.583C90.9609 140.583 94.5021 127.645 92.6061 124.187C90.9888 123.992 90.9609 140.583 90.9609 140.583Z" fill="#121214"></path><path d="M114.438 132.58C114.438 132.58 113.211 146.076 115.191 159.934C114.355 144.403 115.303 132.385 115.303 132.385C115.303 132.385 118.258 128.509 114.271 124.606C117.561 129.067 114.466 132.552 114.466 132.552L114.438 132.58Z" fill="#121214"></path><path d="M97.6797 129.876C99.046 142.256 109.948 135.982 109.948 135.982C109.948 135.982 100.97 139.3 97.6797 129.876Z" fill="#121214"></path><path d="M121.523 82.418C121.133 81.5815 110.398 82.418 110.398 82.418L102.758 96.0251C102.758 96.0251 106.634 102.829 114.803 102.383C117.118 102.271 118.456 95.579 118.456 95.579C118.456 95.579 120.631 95.6347 120.715 94.5194C120.91 92.1772 120.046 89.1658 120.046 89.1658C120.046 89.1658 121.914 86.1265 121.551 82.418H121.523Z" fill="#F0C6B4"></path><path d="M115.947 70.958C104.152 62.8996 100.722 69.4801 98.5195 70.4561C85.8047 73.6905 90.1824 96.1925 85.8047 108.601C86.8643 107.457 90.2939 103.526 90.9352 104.808C93.7236 110.413 99.8579 110.859 99.8579 110.859C99.8579 110.859 102.116 103.526 100.918 98.1443C103.427 97.5309 116.393 96.9453 121.495 82.418C121.245 81.1633 125.12 79.3509 124.897 77.873C124.674 76.3952 122.053 74.9732 115.919 70.958H115.947Z" fill="#603913"></path><path d="M102.059 70.0935C113.323 71.6829 120.685 79.546 120.685 79.546C120.685 79.546 114.327 69.8983 102.059 70.0935Z" fill="#3C2415"></path><path d="M101.39 151.736L94.168 156.142L99.8841 162.332C99.8841 162.332 103.871 163.001 104.596 157.843C105.405 152.154 101.39 151.736 101.39 151.736Z" fill="black"></path><path d="M110.368 156.895C110.368 156.895 112.739 153.716 108.891 152.21C107.72 151.736 102.728 153.27 102.728 153.27L98.9362 152.629L97.2075 153.493L96.1758 158.512L102.199 159.627C102.199 159.627 103.314 163.029 104.792 164.061C106.27 165.065 110.536 165.678 111.484 164.841C112.46 164.005 113.157 160.296 112.348 159.07C111.54 157.871 110.341 156.895 110.341 156.895H110.368Z" fill="#F0C6B4"></path><path d="M99.3818 152.099L96.2031 159.265L101.78 160.185C101.78 160.185 99.9674 156.755 103.062 152.852C100.692 152.684 99.3818 152.099 99.3818 152.099Z" fill="white"></path><path d="M90.8482 147.944C89.8722 146.132 93.051 120.256 93.051 120.256C93.051 120.256 93.9432 112.225 88.8127 110.106C83.6821 107.987 80.1967 113.285 80.3361 117.969C80.4755 122.682 79.416 153.381 81.3957 155.835C83.3754 158.233 99.8824 162.332 99.8824 162.332C99.8824 162.332 96.5364 156.281 101.388 151.736C101.388 151.736 94.1663 150.231 90.8482 147.944Z" fill="#303033"></path><path d="M82.7656 152.182C87.227 148.446 90.8518 147.944 90.8518 147.944C90.8518 147.944 83.4069 147.944 82.7656 152.182Z" fill="#121214"></path><path d="M113.518 154.218C112.793 153.8 111.901 153.521 110.981 153.353L109.475 153.242C108.053 153.242 106.603 153.576 105.515 154.218C103.313 155.5 103.313 157.564 105.515 158.819C107.746 160.101 111.315 160.101 113.518 158.819C115.721 157.536 115.721 155.473 113.518 154.218Z" fill="white"></path><path d="M112.987 154.441C112.345 154.078 111.565 153.827 110.756 153.716L109.445 153.632C108.219 153.632 106.964 153.911 106.016 154.441C104.399 155.361 104.148 156.811 105.235 157.871C105.43 157.675 105.709 157.452 106.016 157.285C106.964 156.755 108.191 156.476 109.445 156.476L110.756 156.56C111.565 156.699 112.317 156.922 112.987 157.285C113.293 157.48 113.544 157.675 113.739 157.871C114.827 156.811 114.576 155.361 112.987 154.441Z" fill="#B8B8B8"></path><path d="M110.787 156.532L109.476 156.449C108.249 156.449 106.994 156.755 106.046 157.257C105.74 157.452 105.489 157.648 105.266 157.843C105.461 158.066 105.74 158.289 106.046 158.428C107.97 159.544 111.093 159.544 113.017 158.428C113.324 158.261 113.575 158.066 113.77 157.843C113.547 157.648 113.296 157.424 113.017 157.257C112.376 156.895 111.595 156.672 110.787 156.532Z" fill="#603913"></path><path d="M113.519 158.846C111.316 160.129 107.747 160.129 105.516 158.846C104.485 158.233 103.927 157.452 103.871 156.671V166.068C103.871 166.905 104.429 167.741 105.516 168.383C107.747 169.665 111.316 169.665 113.519 168.383C114.69 167.713 115.248 166.821 115.164 165.929V156.532C115.164 157.396 114.606 158.177 113.519 158.819V158.846Z" fill="#B8B8B8"></path></svg>