<svg width="368" height="298" viewBox="0 0 368 298" fill="none" xmlns="http://www.w3.org/2000/svg">
<path d="M102.474 32.5867L30.0394 105.024C29.4171 105.645 29.0481 106.475 29.0044 107.352C28.9607 108.23 29.2454 109.092 29.803 109.772L181.739 295.012C181.994 295.321 182.313 295.57 182.675 295.741C183.037 295.911 183.432 296 183.832 296C184.232 296 184.627 295.911 184.989 295.741C185.35 295.57 185.67 295.321 185.924 295.012L337.874 109.762C338.429 109.082 338.713 108.22 338.67 107.343C338.627 106.466 338.26 105.636 337.641 105.014L265.203 32.5867C264.032 31.4168 262.444 30.7595 260.789 30.759H106.895C106.074 30.7583 105.262 30.9193 104.504 31.2329C103.746 31.5465 103.057 32.0066 102.477 32.5867" fill="#B880FF"/>
<path d="M102.474 32.5867L30.0394 105.024C29.4171 105.645 29.0481 106.475 29.0044 107.352C28.9607 108.23 29.2454 109.092 29.803 109.772L181.739 295.012C181.994 295.321 182.313 295.57 182.675 295.741C183.037 295.911 183.432 296 183.832 296C184.232 296 184.627 295.911 184.989 295.741C185.35 295.57 185.67 295.321 185.924 295.012L337.874 109.762C338.429 109.082 338.713 108.22 338.67 107.343C338.627 106.466 338.26 105.636 337.641 105.014L265.203 32.5867C264.032 31.4168 262.444 30.7595 260.789 30.759H106.895C106.074 30.7583 105.262 30.9193 104.504 31.2329C103.746 31.5465 103.057 32.0066 102.477 32.5867" stroke="white" stroke-width="1.2" stroke-miterlimit="10"/>
<path d="M316.93 213.659L304.663 208.286L273.632 75.8248C273.313 74.4653 272.468 73.2876 271.283 72.5495C270.097 71.8114 268.668 71.573 267.307 71.8864L88.7545 113.71L73.4407 107.002L70.8773 110.897C70.4308 111.509 70.1217 112.21 69.9711 112.952C69.8206 113.694 69.8322 114.46 70.005 115.198L104.897 264.091C105.563 266.931 128.972 233.166 131.812 232.5L153.312 259.976L228.812 242.224L255.312 208.286C256.316 208.051 303.953 224.248 304.663 223.5C305.372 222.752 305.848 221.812 306.03 220.797L316.93 213.659Z" fill="black" stroke="black" stroke-width="1.2" stroke-miterlimit="10"/>
<path d="M276.04 57.475L77.0307 104.079C74.1915 104.744 72.4289 107.584 73.0938 110.424L107.962 259.32C108.627 262.16 117.973 222.665 120.812 222L149.312 255.06L234.972 235L271.812 188C274.651 187.335 317.918 213.148 317.253 210.309L282.384 61.412C281.719 58.5728 278.879 56.8101 276.04 57.475Z" fill="white"/>
<path d="M282.384 61.3765L284.854 71.9231L76 122L73.0977 110.404C72.9396 109.729 72.9159 109.03 73.0281 108.346C73.1402 107.662 73.386 107.007 73.7514 106.418C74.1169 105.829 74.5947 105.318 75.1577 104.914C75.7207 104.509 76.3579 104.22 77.0327 104.062L276.039 57.4548C277.4 57.1349 278.833 57.3682 280.023 58.1034C281.212 58.8386 282.062 60.0158 282.384 61.3765Z" fill="black"/>
<path d="M317.253 210.309L282.384 61.412C281.719 58.5728 278.879 56.8101 276.04 57.475L77.0307 104.079C74.1915 104.744 72.4289 107.584 73.0938 110.424L107.962 259.32M234.972 235L149.312 255.06" stroke="#B880FF" stroke-width="1.2" stroke-miterlimit="10"/>
<path d="M86.945 114.88C89.1237 114.88 90.8899 113.114 90.8899 110.935C90.8899 108.757 89.1237 106.99 86.945 106.99C84.7662 106.99 83 108.757 83 110.935C83 113.114 84.7662 114.88 86.945 114.88Z" fill="white" stroke="black" stroke-width="1.2" stroke-miterlimit="10"/>
<path d="M97.3715 112.387C99.5502 112.387 101.316 110.621 101.316 108.442C101.316 106.263 99.5502 104.497 97.3715 104.497C95.1927 104.497 93.4265 106.263 93.4265 108.442C93.4265 110.621 95.1927 112.387 97.3715 112.387Z" fill="white" stroke="black" stroke-width="1.2" stroke-miterlimit="10"/>
<path d="M107.805 109.89C109.984 109.89 111.75 108.124 111.75 105.945C111.75 103.766 109.984 102 107.805 102C105.626 102 103.86 103.766 103.86 105.945C103.86 108.124 105.626 109.89 107.805 109.89Z" fill="#B880FF" stroke="black" stroke-width="1.2" stroke-miterlimit="10"/>
<path d="M262.909 92.8664L273.043 90.4928" stroke="#B880FF" stroke-width="1.2" stroke-linecap="round" stroke-linejoin="round"/>
<path d="M263.678 96.1455L273.809 93.7719" stroke="#B880FF" stroke-width="1.2" stroke-linecap="round" stroke-linejoin="round"/>
<path d="M264.444 99.4214L274.578 97.0477" stroke="#B880FF" stroke-width="1.2" stroke-linecap="round" stroke-linejoin="round"/>
<path d="M127.655 212.91L276.782 177.974" stroke="#B880FF" stroke-width="1.2" stroke-linecap="round" stroke-linejoin="round"/>
<path d="M129.539 220.943L240.022 195.059" stroke="#B880FF" stroke-width="1.2" stroke-linecap="round" stroke-linejoin="round"/>
<path d="M131.42 228.976L189.306 215.417" stroke="#B880FF" stroke-width="1.2" stroke-linecap="round" stroke-linejoin="round"/>
<path d="M196.807 213.659L239.609 203.632" stroke="#B880FF" stroke-width="1.2" stroke-linecap="round" stroke-linejoin="round"/>
<path d="M133.301 237.009L243.784 211.129" stroke="#B880FF" stroke-width="1.2" stroke-linecap="round" stroke-linejoin="round"/>
<path d="M135.182 245.042L204.896 228.713" stroke="#B880FF" stroke-width="1.2" stroke-linecap="round" stroke-linejoin="round"/>
<path d="M273.639 189.656L279.278 213.739" stroke="#B880FF" stroke-width="1.2" stroke-linecap="round" stroke-linejoin="round"/>
<path d="M283.599 207.084L279.332 213.962L272.454 209.697" stroke="#B880FF" stroke-width="1.2" stroke-linecap="round" stroke-linejoin="round"/>
<path d="M103.62 132.83L96.882 128.649C96.3555 128.322 95.6639 128.484 95.3372 129.01L91.1561 135.748C90.8294 136.275 90.9914 136.967 91.5179 137.293L98.256 141.474C98.7825 141.801 99.4741 141.639 99.8008 141.113L103.982 134.374C104.309 133.848 104.147 133.156 103.62 132.83Z" stroke="#B880FF" stroke-width="1.2" stroke-linecap="round" stroke-linejoin="round"/>
<path d="M194.54 172.646L170.677 157.854C170.333 157.64 169.95 157.496 169.55 157.431C169.15 157.366 168.742 157.38 168.347 157.472C167.953 157.565 167.581 157.735 167.252 157.972C166.924 158.208 166.645 158.508 166.432 158.852L154.887 177.459" stroke="#B880FF" stroke-width="1.2" stroke-linecap="round" stroke-linejoin="round"/>
<path d="M117.778 184.819L135.039 156.995C135.252 156.65 135.531 156.351 135.86 156.114C136.189 155.877 136.561 155.707 136.956 155.615C137.35 155.522 137.759 155.508 138.159 155.573C138.559 155.639 138.942 155.782 139.287 155.996L160.16 168.95" stroke="#B880FF" stroke-width="1.2" stroke-linecap="round" stroke-linejoin="round"/>
<path d="M175.96 151.039C178.571 151.039 180.687 148.923 180.687 146.312C180.687 143.701 178.571 141.584 175.96 141.584C173.349 141.584 171.233 143.701 171.233 146.312C171.233 148.923 173.349 151.039 175.96 151.039Z" stroke="#B880FF" stroke-width="1.2" stroke-linecap="round" stroke-linejoin="round"/>
<path d="M182.102 133.327L115.936 148.822C114.206 149.227 113.133 150.957 113.538 152.686L123.016 193.161C123.421 194.891 125.151 195.964 126.881 195.559L193.047 180.064C194.777 179.66 195.85 177.929 195.445 176.2L185.967 135.725C185.562 133.995 183.832 132.922 182.102 133.327Z" stroke="#B880FF" stroke-width="1.2" stroke-miterlimit="10"/>
<path d="M275.114 156.825L247.286 139.564C246.942 139.351 246.559 139.207 246.159 139.142C245.759 139.077 245.351 139.091 244.957 139.184C244.562 139.277 244.19 139.446 243.862 139.683C243.533 139.919 243.254 140.218 243.041 140.563L231.499 159.166" stroke="#B880FF" stroke-width="1.2" stroke-linecap="round" stroke-linejoin="round"/>
<path d="M196.899 162.5L211.651 138.725C211.864 138.38 212.143 138.081 212.471 137.844C212.8 137.607 213.172 137.438 213.566 137.345C213.961 137.252 214.369 137.238 214.769 137.303C215.169 137.369 215.552 137.512 215.896 137.726L236.766 150.67" stroke="#B880FF" stroke-width="1.2" stroke-linecap="round" stroke-linejoin="round"/>
<path d="M252.569 132.762C255.18 132.762 257.296 130.646 257.296 128.035C257.296 125.424 255.18 123.308 252.569 123.308C249.958 123.308 247.842 125.424 247.842 128.035C247.842 130.646 249.958 132.762 252.569 132.762Z" stroke="#B880FF" stroke-width="1.2" stroke-linecap="round" stroke-linejoin="round"/>
<path d="M258.711 115.055L192.545 130.55C190.815 130.955 189.742 132.685 190.147 134.415L199.625 174.89C200.03 176.619 201.76 177.693 203.49 177.288L269.656 161.793C271.386 161.388 272.459 159.658 272.054 157.929L262.576 117.453C262.171 115.724 260.441 114.65 258.711 115.055Z" stroke="#B880FF" stroke-width="1.2" stroke-miterlimit="10"/>
<path d="M102.474 32.5867L30.0394 105.024C29.4171 105.645 29.0481 106.475 29.0044 107.352C28.9607 108.23 29.2454 109.092 29.803 109.772L181.739 295.012C181.994 295.321 182.313 295.57 182.675 295.741C183.037 295.911 183.432 296 183.832 296C184.232 296 184.627 295.911 184.989 295.741C185.35 295.57 185.67 295.321 185.924 295.012L337.874 109.762C338.429 109.082 338.713 108.22 338.67 107.343C338.627 106.466 338.26 105.636 337.641 105.014L265.203 32.5867C264.032 31.4168 262.444 30.7595 260.789 30.759H106.895C106.074 30.7583 105.262 30.9193 104.504 31.2329C103.746 31.5465 103.057 32.0066 102.477 32.5867" stroke="white" stroke-width="2" stroke-miterlimit="10"/>
<path d="M191 198L282.647 187.496" stroke="black" stroke-width="1.2" stroke-miterlimit="10"/>
<path d="M280.187 244.35C308.564 244.35 331.568 221.346 331.568 192.969C331.568 164.592 308.564 141.588 280.187 141.588C251.81 141.588 228.806 164.592 228.806 192.969C228.806 221.346 251.81 244.35 280.187 244.35Z" fill="black" stroke="black" stroke-width="1.2" stroke-miterlimit="10"/>
<path d="M281.509 239.18C309.886 239.18 332.89 216.176 332.89 187.799C332.89 159.422 309.886 136.418 281.509 136.418C253.132 136.418 230.128 159.422 230.128 187.799C230.128 216.176 253.132 239.18 281.509 239.18Z" fill="#B880FF" stroke="black" stroke-width="1.2" stroke-miterlimit="10"/>
<path d="M245.435 196.608C248.27 196.608 250.568 194.309 250.568 191.474C250.568 188.639 248.27 186.341 245.435 186.341C242.6 186.341 240.301 188.639 240.301 191.474C240.301 194.309 242.6 196.608 245.435 196.608Z" fill="white"/>
<path d="M269.93 192.629C272.765 192.629 275.064 190.331 275.064 187.496C275.064 184.661 272.765 182.363 269.93 182.363C267.095 182.363 264.797 184.661 264.797 187.496C264.797 190.331 267.095 192.629 269.93 192.629Z" fill="white"/>
<path d="M290.75 185.285C293.586 185.285 295.884 182.987 295.884 180.152C295.884 177.317 293.586 175.019 290.75 175.019C287.915 175.019 285.617 177.317 285.617 180.152C285.617 182.987 287.915 185.285 290.75 185.285Z" fill="white"/>
<path d="M315.043 182.965C317.878 182.965 320.176 180.667 320.176 177.832C320.176 174.996 317.878 172.698 315.043 172.698C312.208 172.698 309.909 174.996 309.909 177.832C309.909 180.667 312.208 182.965 315.043 182.965Z" fill="white"/>
<path d="M245.435 191.474L269.93 187.496L290.75 180.152L315.043 177.832" stroke="white" stroke-width="1.2" stroke-linecap="round" stroke-linejoin="round"/>
<path d="M247.712 202.9L264.797 172.698L290.75 192.629L317.583 197.766" stroke="black" stroke-width="1.2" stroke-miterlimit="10"/>
<path d="M247.712 208.033C250.547 208.033 252.845 205.735 252.845 202.9C252.845 200.065 250.547 197.766 247.712 197.766C244.877 197.766 242.578 200.065 242.578 202.9C242.578 205.735 244.877 208.033 247.712 208.033Z" fill="#B880FF" stroke="black" stroke-width="1.2" stroke-miterlimit="10"/>
<path d="M264.797 177.832C267.632 177.832 269.93 175.533 269.93 172.698C269.93 169.863 267.632 167.565 264.797 167.565C261.962 167.565 259.663 169.863 259.663 172.698C259.663 175.533 261.962 177.832 264.797 177.832Z" fill="#B880FF" stroke="black" stroke-width="1.2" stroke-miterlimit="10"/>
<path d="M290.75 197.763C293.586 197.763 295.884 195.465 295.884 192.629C295.884 189.794 293.586 187.496 290.75 187.496C287.915 187.496 285.617 189.794 285.617 192.629C285.617 195.465 287.915 197.763 290.75 197.763Z" fill="#B880FF" stroke="black" stroke-width="1.2" stroke-miterlimit="10"/>
<path d="M317.583 202.899C320.418 202.899 322.716 200.601 322.716 197.766C322.716 194.931 320.418 192.633 317.583 192.633C314.748 192.633 312.449 194.931 312.449 197.766C312.449 200.601 314.748 202.899 317.583 202.899Z" fill="#B880FF" stroke="black" stroke-width="1.2" stroke-miterlimit="10"/>
<path d="M190.952 201.903C193.134 201.903 194.903 200.134 194.903 197.952C194.903 195.769 193.134 194 190.952 194C188.769 194 187 195.769 187 197.952C187 200.134 188.769 201.903 190.952 201.903Z" fill="black" stroke="black" stroke-width="1.2" stroke-miterlimit="10"/>
<path d="M207.496 144.77L171.489 55.967" stroke="black" stroke-width="1.2" stroke-miterlimit="10"/>
<path d="M207.497 148.722C209.679 148.722 211.448 146.953 211.448 144.77C211.448 142.588 209.679 140.819 207.497 140.819C205.314 140.819 203.545 142.588 203.545 144.77C203.545 146.953 205.314 148.722 207.497 148.722Z" fill="black" stroke="black" stroke-width="1.2" stroke-miterlimit="10"/>
<path d="M221.828 57.5916C221.835 67.7254 218.844 77.6348 213.232 86.0728C207.62 94.5108 199.637 101.1 190.289 105.012C180.941 108.924 170.644 109.983 160.695 108.056C150.746 106.13 141.589 101.304 134.376 94.1849C133.984 93.7988 133.597 93.4093 133.218 93.0098C127.423 86.9271 123.207 79.5167 120.94 71.4271C118.673 63.3375 118.423 54.8154 120.212 46.607C122.002 38.3985 125.777 30.7539 131.206 24.3424C136.635 17.9308 143.553 12.9479 151.354 9.82966C159.155 6.71146 167.602 5.55312 175.954 6.45603C184.307 7.35895 192.311 10.2956 199.266 15.0089C206.22 19.7222 211.914 26.0684 215.847 33.492C219.78 40.9156 221.834 49.1903 221.828 57.5916V57.5916Z" fill="black" stroke="black" stroke-width="1.2" stroke-miterlimit="10"/>
<path d="M223.769 53.4368C223.776 63.5706 220.785 73.48 215.173 81.918C209.561 90.3559 201.578 96.9454 192.23 100.857C182.881 104.769 172.585 105.828 162.636 103.902C152.687 101.975 143.53 97.1487 136.317 90.0301C135.924 89.6439 135.541 89.2578 135.162 88.8549C129.366 82.7726 125.149 75.3621 122.881 67.2724C120.614 59.1826 120.363 50.6602 122.153 42.4513C123.942 34.2424 127.716 26.5973 133.145 20.1853C138.574 13.7734 145.492 8.79001 153.294 5.67158C161.095 2.55315 169.542 1.39474 177.895 2.29775C186.248 3.20076 194.253 6.13767 201.208 10.8514C208.162 15.565 213.856 21.9118 217.789 29.3359C221.722 36.76 223.775 45.0351 223.769 53.4368V53.4368Z" fill="#B880FF"/>
<path d="M188.707 20.2524H139.195V39.3714H188.707V20.2524Z" fill="white" stroke="white" stroke-width="1.2" stroke-linecap="round" stroke-linejoin="round"/>
<path d="M133.141 20.2524H182.761V39.3714H123.012" stroke="white" stroke-width="1.2" stroke-linecap="round" stroke-linejoin="round"/>
<path d="M182.761 39.3714V20.2524H133.249V39.3714H182.761Z" fill="#B880FF"/>
<path d="M133.249 20.2524V39.3714H123.012H182.761V20.2524H133.141H133.249Z" stroke="white" stroke-width="1.2" stroke-linecap="round" stroke-linejoin="round"/>
<path d="M166.815 20.2524H132.812L126.312 30L122.812 39.3714H166.815V20.2524Z" fill="black"/>
<path d="M133.136 20.2524H166.815V39.3714H122.994" stroke="white" stroke-width="1.2" stroke-linecap="round" stroke-linejoin="round"/>
<path d="M214.864 44.1819H130.589V63.3008H214.864V44.1819Z" fill="white" stroke="white" stroke-width="1.2" stroke-linecap="round" stroke-linejoin="round"/>
<path d="M198.881 44.1819H123.595V63.3008H198.881V44.1819Z" fill="#B880FF"/>
<path d="M198.881 44.1819H124.595V63.3008H198.881V44.1819Z" stroke="white" stroke-width="1.2" stroke-linecap="round" stroke-linejoin="round"/>
<path d="M146.694 44.1819H121.302L120.302 63.3008H146.694V44.1819Z" fill="black"/>
<path d="M121.971 44.1819H146.694V63.3008H122.06" stroke="white" stroke-width="1.2" stroke-linecap="round" stroke-linejoin="round"/>
<path d="M200.342 68.1113H145.057V87.2303H200.342V68.1113Z" fill="white" stroke="white" stroke-width="1.2" stroke-linecap="round" stroke-linejoin="round"/>
<path d="M178.84 68.1113H138.062V87.2303H178.84V68.1113Z" fill="#B880FF" stroke="white" stroke-width="1.2" stroke-linecap="round" stroke-linejoin="round"/>
<path d="M123.312 68.1113H178.84V87.2303H133.812" stroke="white" stroke-width="1.2" stroke-linecap="round" stroke-linejoin="round"/>
<path d="M172.272 68.1113H123.312L126.812 77.6708L133.812 87.2303H172.272V68.1113Z" fill="black"/>
<path d="M123.151 68.1113H172.271V87.2303H133.812" stroke="white" stroke-width="1.2" stroke-linecap="round" stroke-linejoin="round"/>
<path d="M223.769 53.4368C223.776 63.5706 220.785 73.48 215.173 81.918C209.561 90.3559 201.578 96.9454 192.23 100.857C182.881 104.769 172.585 105.828 162.636 103.902C152.687 101.975 143.53 97.1487 136.317 90.0301C135.924 89.6439 135.541 89.2578 135.162 88.8549C129.366 82.7726 125.149 75.3621 122.881 67.2724C120.614 59.1826 120.363 50.6602 122.153 42.4513C123.942 34.2424 127.716 26.5973 133.145 20.1853C138.574 13.7734 145.492 8.79001 153.294 5.67158C161.095 2.55315 169.542 1.39474 177.895 2.29775C186.248 3.20076 194.253 6.13767 201.208 10.8514C208.162 15.565 213.856 21.9118 217.789 29.3359C221.722 36.76 223.775 45.0351 223.769 53.4368V53.4368Z" stroke="black" stroke-width="1.2" stroke-miterlimit="10"/>
<path d="M111 131L94.1411 218.074" stroke="black" stroke-width="1.2" stroke-miterlimit="10"/>
<path d="M110.952 135.903C113.134 135.903 114.903 134.134 114.903 131.952C114.903 129.769 113.134 128 110.952 128C108.769 128 107 129.769 107 131.952C107 134.134 108.769 135.903 110.952 135.903Z" fill="black" stroke="black" stroke-width="1.2" stroke-miterlimit="10"/>
<path d="M92.8194 274.621C121.196 274.621 144.201 251.617 144.201 223.24C144.201 194.863 121.196 171.859 92.8194 171.859C64.4424 171.859 41.4382 194.863 41.4382 223.24C41.4382 251.617 64.4424 274.621 92.8194 274.621Z" fill="black" stroke="black" stroke-width="1.2" stroke-miterlimit="10"/>
<path d="M94.1409 269.455C122.518 269.455 145.522 246.451 145.522 218.074C145.522 189.697 122.518 166.692 94.1409 166.692C65.7639 166.692 42.7598 189.697 42.7598 218.074C42.7598 246.451 65.7639 269.455 94.1409 269.455Z" fill="#B880FF" stroke="black" stroke-width="1.2" stroke-miterlimit="10"/>
<path d="M49.0886 220.066L57.521 217.088L68.8399 205.08L80.5184 207.304L91.4444 203.665L103.096 214.511L108.09 200.196L114.132 191.694L132.143 221.902L143.67 203.762" stroke="white" stroke-width="1.2" stroke-linecap="round" stroke-linejoin="round"/>
<path d="M42.812 217.042L59.6449 225.278L87.8456 218.786L96.1251 238.827L109.927 217.761L112.018 225.561L119.675 221.163L136.117 233.917L144.657 226.5" stroke="black" stroke-width="1.2" stroke-linecap="round" stroke-linejoin="round"/>
<path d="M145.512 217.741C145.498 231.191 140.196 244.096 130.751 253.672C121.306 263.248 108.475 268.726 95.0268 268.926C81.5782 269.125 68.5904 264.029 58.8659 254.737C49.1413 245.445 43.4597 232.703 43.0469 219.259C42.6341 205.816 47.5232 192.749 56.6594 182.878C65.7955 173.007 78.4462 167.124 91.8816 166.497C105.317 165.871 118.46 170.552 128.475 179.531C138.489 188.509 144.573 201.064 145.412 214.488C145.475 215.564 145.512 216.649 145.512 217.741Z" stroke="black" stroke-width="1.2" stroke-miterlimit="10"/>
</svg>
